<?xml version='1.0' encoding='ASCII' standalone='yes'?>
<svg xmlns:svg="http://www.w3.org/2000/svg" xmlns="http://www.w3.org/2000/svg" xmlns:xlink="http://www.w3.org/1999/xlink" version="1.1" width="297.0022mm" height="210.0072mm" viewBox="0.0000 0.0000 297.0022 210.0072">
<svg:rect x="0" y="0" width="297.0022" height="210.0072" fill="#FFFFFF"/><title>SVG Image created as can-module-Edge_Cuts0.svg date 2026/02/19 14:25:42 </title>
  <desc>Image generated by PCBNEW </desc>
<g style="fill:#C2C200; fill-opacity:1.0000;stroke:#C2C200; stroke-opacity:1.0000; stroke-linecap:round; stroke-linejoin:round;" transform="translate(0 0) scale(1 1)">
<path style="fill:none;  stroke:#C2C200; stroke-width:0.3409; stroke-opacity:1;  stroke-linecap:round; stroke-linejoin:round;fill:none" d="M 85.4826,52.4976 258.6841,52.4976 258.6841,182.3988 85.4826,182.3988 Z"/> 
</g> 
<svg:g><svg:g><svg:title>SVG Image created as can-module-User_11.svg date 2026/02/19 14:25:42 </svg:title>
  <svg:desc>Image generated by PCBNEW </svg:desc>
<svg:g style="fill:#000084; fill-opacity:1.0000;stroke:#000084; stroke-opacity:1.0000; stroke-linecap:round; stroke-linejoin:round;" transform="translate(0 0) scale(1 1)">
</svg:g>
<svg:g style="fill:none;  stroke:#000084; stroke-width:1.0228; stroke-opacity:1;  stroke-linecap:round; stroke-linejoin:round;">
<svg:text x="117.8726" y="35.9617" textLength="17.9403" font-size="9.0919" lengthAdjust="spacingAndGlyphs" text-anchor="middle" opacity="0" stroke-opacity="0">6.5</svg:text>
<svg:g class="stroked-text"><svg:desc>6.5</svg:desc>
<svg:path d="M114.3008 28.8346 L113.0019 28.8346 "/>
<svg:path d="M113.0019 28.8346 L112.3525 29.1593 "/>
<svg:path d="M112.3525 29.1593 L112.0278 29.4840 "/>
<svg:path d="M112.0278 29.4840 L111.3784 30.4582 "/>
<svg:path d="M111.3784 30.4582 L111.0537 31.7570 "/>
<svg:path d="M111.0537 31.7570 L111.0537 34.3547 "/>
<svg:path d="M111.0537 34.3547 L111.3784 35.0041 "/>
<svg:path d="M111.3784 35.0041 L111.7031 35.3289 "/>
<svg:path d="M111.7031 35.3289 L112.3525 35.6536 "/>
<svg:path d="M112.3525 35.6536 L113.6514 35.6536 "/>
<svg:path d="M113.6514 35.6536 L114.3008 35.3289 "/>
<svg:path d="M114.3008 35.3289 L114.6255 35.0041 "/>
<svg:path d="M114.6255 35.0041 L114.9502 34.3547 "/>
<svg:path d="M114.9502 34.3547 L114.9502 32.7312 "/>
<svg:path d="M114.9502 32.7312 L114.6255 32.0817 "/>
<svg:path d="M114.6255 32.0817 L114.3008 31.7570 "/>
<svg:path d="M114.3008 31.7570 L113.6514 31.4323 "/>
<svg:path d="M113.6514 31.4323 L112.3525 31.4323 "/>
<svg:path d="M112.3525 31.4323 L111.7031 31.7570 "/>
<svg:path d="M111.7031 31.7570 L111.3784 32.0817 "/>
<svg:path d="M111.3784 32.0817 L111.0537 32.7312 "/>
<svg:path d="M117.8726 35.0041 L118.1973 35.3289 "/>
<svg:path d="M118.1973 35.3289 L117.8726 35.6536 "/>
<svg:path d="M117.8726 35.6536 L117.5479 35.3289 "/>
<svg:path d="M117.5479 35.3289 L117.8726 35.0041 "/>
<svg:path d="M117.8726 35.0041 L117.8726 35.6536 "/>
<svg:path d="M124.3669 28.8346 L121.1197 28.8346 "/>
<svg:path d="M121.1197 28.8346 L120.7950 32.0817 "/>
<svg:path d="M120.7950 32.0817 L121.1197 31.7570 "/>
<svg:path d="M121.1197 31.7570 L121.7692 31.4323 "/>
<svg:path d="M121.7692 31.4323 L123.3927 31.4323 "/>
<svg:path d="M123.3927 31.4323 L124.0421 31.7570 "/>
<svg:path d="M124.0421 31.7570 L124.3669 32.0817 "/>
<svg:path d="M124.3669 32.0817 L124.6916 32.7312 "/>
<svg:path d="M124.6916 32.7312 L124.6916 34.3547 "/>
<svg:path d="M124.6916 34.3547 L124.3669 35.0041 "/>
<svg:path d="M124.3669 35.0041 L124.0421 35.3289 "/>
<svg:path d="M124.0421 35.3289 L123.3927 35.6536 "/>
<svg:path d="M123.3927 35.6536 L121.7692 35.6536 "/>
<svg:path d="M121.7692 35.6536 L121.1197 35.3289 "/>
<svg:path d="M121.1197 35.3289 L120.7950 35.0041 "/>
</svg:g></svg:g>
<svg:g style="fill:none;  stroke:#000084; stroke-width:0.6819; stroke-opacity:1;  stroke-linecap:round; stroke-linejoin:round;">
<svg:path d="M95.7110 114.0387 L95.7110 36.3952 "/>
<svg:path d="M140.0342 36.3952 L140.0342 59.3166 "/>
<svg:path d="M95.7110 40.3940 L140.0342 40.3940 "/>
<svg:path d="M95.7110 40.3940 L103.3926 36.3952 "/>
<svg:path d="M95.7110 40.3940 L103.3926 44.3928 "/>
<svg:path d="M140.0342 40.3940 L132.3526 44.3928 "/>
<svg:path d="M140.0342 40.3940 L132.3526 36.3952 "/>
</svg:g>
<svg:g style="fill:none;  stroke:#000084; stroke-width:1.0228; stroke-opacity:1;  stroke-linecap:round; stroke-linejoin:round;">
<svg:g transform="rotate(-90.000000 282.5504 66.4765)">
<svg:text x="282.5504" y="69.8860" textLength="8.1990" font-size="9.0919" lengthAdjust="spacingAndGlyphs" text-anchor="middle" opacity="0" stroke-opacity="0">4</svg:text>
</svg:g>
<svg:g class="stroked-text"><svg:desc>4</svg:desc>
<svg:path d="M281.1058 65.1776 L285.6518 65.1776 "/>
<svg:path d="M278.5081 66.8012 L283.3788 68.4248 "/>
<svg:path d="M283.3788 68.4248 L283.3788 64.2035 "/>
</svg:g></svg:g>
<svg:g style="fill:none;  stroke:#000084; stroke-width:0.6819; stroke-opacity:1;  stroke-linecap:round; stroke-linejoin:round;">
<svg:path d="M204.1324 79.7735 L278.0255 79.7735 "/>
<svg:path d="M278.0255 52.4976 L205.1553 52.4976 "/>
<svg:path d="M274.0267 79.7735 L274.0267 52.4976 "/>
<svg:path d="M274.0267 79.7735 L270.0279 72.0919 "/>
<svg:path d="M274.0267 79.7735 L278.0255 72.0919 "/>
<svg:path d="M274.0267 52.4976 L278.0255 60.1792 "/>
<svg:path d="M274.0267 52.4976 L270.0279 60.1792 "/>
</svg:g>
<svg:g style="fill:none;  stroke:#000084; stroke-width:1.0228; stroke-opacity:1;  stroke-linecap:round; stroke-linejoin:round;">
<svg:text x="94.6882" y="34.7683" textLength="17.9403" font-size="9.0919" lengthAdjust="spacingAndGlyphs" text-anchor="middle" opacity="0" stroke-opacity="0">1.5</svg:text>
<svg:g class="stroked-text"><svg:desc>1.5</svg:desc>
<svg:path d="M91.7658 34.4603 L87.8692 34.4603 "/>
<svg:path d="M89.8175 34.4603 L89.8175 27.6413 "/>
<svg:path d="M89.8175 27.6413 L89.1681 28.6154 "/>
<svg:path d="M89.1681 28.6154 L88.5186 29.2649 "/>
<svg:path d="M88.5186 29.2649 L87.8692 29.5896 "/>
<svg:path d="M94.6882 33.8108 L95.0129 34.1355 "/>
<svg:path d="M95.0129 34.1355 L94.6882 34.4603 "/>
<svg:path d="M94.6882 34.4603 L94.3635 34.1355 "/>
<svg:path d="M94.3635 34.1355 L94.6882 33.8108 "/>
<svg:path d="M94.6882 33.8108 L94.6882 34.4603 "/>
<svg:path d="M101.1824 27.6413 L97.9353 27.6413 "/>
<svg:path d="M97.9353 27.6413 L97.6106 30.8884 "/>
<svg:path d="M97.6106 30.8884 L97.9353 30.5637 "/>
<svg:path d="M97.9353 30.5637 L98.5847 30.2390 "/>
<svg:path d="M98.5847 30.2390 L100.2083 30.2390 "/>
<svg:path d="M100.2083 30.2390 L100.8577 30.5637 "/>
<svg:path d="M100.8577 30.5637 L101.1824 30.8884 "/>
<svg:path d="M101.1824 30.8884 L101.5071 31.5378 "/>
<svg:path d="M101.5071 31.5378 L101.5071 33.1614 "/>
<svg:path d="M101.5071 33.1614 L101.1824 33.8108 "/>
<svg:path d="M101.1824 33.8108 L100.8577 34.1355 "/>
<svg:path d="M100.8577 34.1355 L100.2083 34.4603 "/>
<svg:path d="M100.2083 34.4603 L98.5847 34.4603 "/>
<svg:path d="M98.5847 34.4603 L97.9353 34.1355 "/>
<svg:path d="M97.9353 34.1355 L97.6106 33.8108 "/>
</svg:g></svg:g>
<svg:g style="fill:none;  stroke:#000084; stroke-width:0.6819; stroke-opacity:1;  stroke-linecap:round; stroke-linejoin:round;">
<svg:path d="M95.7110 114.0387 L95.7110 36.3952 "/>
<svg:path d="M85.4826 36.3952 L85.4826 49.0882 "/>
<svg:path d="M95.7110 40.3940 L85.4826 40.3940 "/>
<svg:path d="M95.7110 40.3940 L113.0312 40.3940 "/>
<svg:path d="M95.7110 40.3940 L103.3926 36.3952 "/>
<svg:path d="M95.7110 40.3940 L103.3926 44.3928 "/>
<svg:path d="M85.4826 40.3940 L68.1624 40.3940 "/>
<svg:path d="M85.4826 40.3940 L77.8010 44.3928 "/>
<svg:path d="M85.4826 40.3940 L77.8010 36.3952 "/>
</svg:g>
<svg:g style="fill:none;  stroke:#000084; stroke-width:1.0228; stroke-opacity:1;  stroke-linecap:round; stroke-linejoin:round;">
<svg:g transform="rotate(-90.000000 282.2095 168.7608)">
<svg:text x="282.2095" y="172.1703" textLength="8.1990" font-size="9.0919" lengthAdjust="spacingAndGlyphs" text-anchor="middle" opacity="0" stroke-opacity="0">4</svg:text>
</svg:g>
<svg:g class="stroked-text"><svg:desc>4</svg:desc>
<svg:path d="M280.7649 167.4620 L285.3109 167.4620 "/>
<svg:path d="M278.1672 169.0855 L283.0379 170.7091 "/>
<svg:path d="M283.0379 170.7091 L283.0379 166.4879 "/>
</svg:g></svg:g>
<svg:g style="fill:none;  stroke:#000084; stroke-width:0.6819; stroke-opacity:1;  stroke-linecap:round; stroke-linejoin:round;">
<svg:path d="M204.1324 155.1229 L278.0255 155.1229 "/>
<svg:path d="M278.0255 182.3988 L204.1324 182.3988 "/>
<svg:path d="M274.0267 155.1229 L274.0267 182.3988 "/>
<svg:path d="M274.0267 155.1229 L278.0255 162.8045 "/>
<svg:path d="M274.0267 155.1229 L270.0279 162.8045 "/>
<svg:path d="M274.0267 182.3988 L270.0279 174.7172 "/>
<svg:path d="M274.0267 182.3988 L278.0255 174.7172 "/>
</svg:g>
<svg:g style="fill:none;  stroke:#000084; stroke-width:1.0228; stroke-opacity:1;  stroke-linecap:round; stroke-linejoin:round;">
<svg:g transform="rotate(-90.000000 53.7744 61.3623)">
<svg:text x="53.7744" y="64.7718" textLength="17.9403" font-size="9.0919" lengthAdjust="spacingAndGlyphs" text-anchor="middle" opacity="0" stroke-opacity="0">1.5</svg:text>
</svg:g>
<svg:g class="stroked-text"><svg:desc>1.5</svg:desc>
<svg:path d="M56.8758 64.2847 L56.8758 68.1812 "/>
<svg:path d="M56.8758 66.2330 L50.0569 66.2330 "/>
<svg:path d="M50.0569 66.2330 L51.0310 66.8824 "/>
<svg:path d="M51.0310 66.8824 L51.6804 67.5318 "/>
<svg:path d="M51.6804 67.5318 L52.0051 68.1812 "/>
<svg:path d="M56.2264 61.3623 L56.5511 61.0376 "/>
<svg:path d="M56.5511 61.0376 L56.8758 61.3623 "/>
<svg:path d="M56.8758 61.3623 L56.5511 61.6870 "/>
<svg:path d="M56.5511 61.6870 L56.2264 61.3623 "/>
<svg:path d="M56.2264 61.3623 L56.8758 61.3623 "/>
<svg:path d="M50.0569 54.8680 L50.0569 58.1151 "/>
<svg:path d="M50.0569 58.1151 L53.3040 58.4399 "/>
<svg:path d="M53.3040 58.4399 L52.9793 58.1151 "/>
<svg:path d="M52.9793 58.1151 L52.6546 57.4657 "/>
<svg:path d="M52.6546 57.4657 L52.6546 55.8422 "/>
<svg:path d="M52.6546 55.8422 L52.9793 55.1927 "/>
<svg:path d="M52.9793 55.1927 L53.3040 54.8680 "/>
<svg:path d="M53.3040 54.8680 L53.9534 54.5433 "/>
<svg:path d="M53.9534 54.5433 L55.5770 54.5433 "/>
<svg:path d="M55.5770 54.5433 L56.2264 54.8680 "/>
<svg:path d="M56.2264 54.8680 L56.5511 55.1927 "/>
<svg:path d="M56.5511 55.1927 L56.8758 55.8422 "/>
<svg:path d="M56.8758 55.8422 L56.8758 57.4657 "/>
<svg:path d="M56.8758 57.4657 L56.5511 58.1151 "/>
<svg:path d="M56.5511 58.1151 L56.2264 58.4399 "/>
</svg:g></svg:g>
<svg:g style="fill:none;  stroke:#000084; stroke-width:0.6819; stroke-opacity:1;  stroke-linecap:round; stroke-linejoin:round;">
<svg:path d="M136.6247 62.7261 L59.2199 62.7261 "/>
<svg:path d="M59.2199 52.4976 L82.0731 52.4976 "/>
<svg:path d="M63.2187 62.7261 L63.2187 52.4976 "/>
<svg:path d="M63.2187 62.7261 L63.2187 80.0462 "/>
<svg:path d="M63.2187 62.7261 L67.2175 70.4076 "/>
<svg:path d="M63.2187 62.7261 L59.2199 70.4076 "/>
<svg:path d="M63.2187 52.4976 L63.2187 35.1775 "/>
<svg:path d="M63.2187 52.4976 L59.2199 44.8161 "/>
<svg:path d="M63.2187 52.4976 L67.2175 44.8161 "/>
</svg:g>
<svg:g style="fill:none;  stroke:#000084; stroke-width:1.0228; stroke-opacity:1;  stroke-linecap:round; stroke-linejoin:round;">
<svg:text x="172.0833" y="9.1973" textLength="24.4346" font-size="9.0919" lengthAdjust="spacingAndGlyphs" text-anchor="middle" opacity="0" stroke-opacity="0">25.4</svg:text>
<svg:g class="stroked-text"><svg:desc>25.4</svg:desc>
<svg:path d="M162.0172 2.7196 L162.3420 2.3949 "/>
<svg:path d="M162.3420 2.3949 L162.9914 2.0702 "/>
<svg:path d="M162.9914 2.0702 L164.6149 2.0702 "/>
<svg:path d="M164.6149 2.0702 L165.2644 2.3949 "/>
<svg:path d="M165.2644 2.3949 L165.5891 2.7196 "/>
<svg:path d="M165.5891 2.7196 L165.9138 3.3691 "/>
<svg:path d="M165.9138 3.3691 L165.9138 4.0185 "/>
<svg:path d="M165.9138 4.0185 L165.5891 4.9926 "/>
<svg:path d="M165.5891 4.9926 L161.6925 8.8892 "/>
<svg:path d="M161.6925 8.8892 L165.9138 8.8892 "/>
<svg:path d="M172.0833 2.0702 L168.8362 2.0702 "/>
<svg:path d="M168.8362 2.0702 L168.5115 5.3173 "/>
<svg:path d="M168.5115 5.3173 L168.8362 4.9926 "/>
<svg:path d="M168.8362 4.9926 L169.4856 4.6679 "/>
<svg:path d="M169.4856 4.6679 L171.1092 4.6679 "/>
<svg:path d="M171.1092 4.6679 L171.7586 4.9926 "/>
<svg:path d="M171.7586 4.9926 L172.0833 5.3173 "/>
<svg:path d="M172.0833 5.3173 L172.4080 5.9668 "/>
<svg:path d="M172.4080 5.9668 L172.4080 7.5903 "/>
<svg:path d="M172.4080 7.5903 L172.0833 8.2397 "/>
<svg:path d="M172.0833 8.2397 L171.7586 8.5645 "/>
<svg:path d="M171.7586 8.5645 L171.1092 8.8892 "/>
<svg:path d="M171.1092 8.8892 L169.4856 8.8892 "/>
<svg:path d="M169.4856 8.8892 L168.8362 8.5645 "/>
<svg:path d="M168.8362 8.5645 L168.5115 8.2397 "/>
<svg:path d="M175.3304 8.2397 L175.6552 8.5645 "/>
<svg:path d="M175.6552 8.5645 L175.3304 8.8892 "/>
<svg:path d="M175.3304 8.8892 L175.0057 8.5645 "/>
<svg:path d="M175.0057 8.5645 L175.3304 8.2397 "/>
<svg:path d="M175.3304 8.2397 L175.3304 8.8892 "/>
<svg:path d="M181.5000 4.3432 L181.5000 8.8892 "/>
<svg:path d="M179.8764 1.7455 L178.2529 6.6162 "/>
<svg:path d="M178.2529 6.6162 L182.4741 6.6162 "/>
</svg:g></svg:g>
<svg:g style="fill:none;  stroke:#000084; stroke-width:0.6819; stroke-opacity:1;  stroke-linecap:round; stroke-linejoin:round;">
<svg:path d="M85.4826 49.0882 L85.4826 9.6308 "/>
<svg:path d="M258.6841 9.6308 L258.6841 49.0882 "/>
<svg:path d="M85.4826 13.6296 L258.6841 13.6296 "/>
<svg:path d="M85.4826 13.6296 L93.1642 9.6308 "/>
<svg:path d="M85.4826 13.6296 L93.1642 17.6284 "/>
<svg:path d="M258.6841 13.6296 L251.0025 17.6284 "/>
<svg:path d="M258.6841 13.6296 L251.0025 9.6308 "/>
</svg:g>
<svg:g style="fill:none;  stroke:#000084; stroke-width:1.0228; stroke-opacity:1;  stroke-linecap:round; stroke-linejoin:round;">
<svg:g transform="rotate(-90.000000 25.8167 117.4482)">
<svg:text x="25.8167" y="120.8577" textLength="30.9288" font-size="9.0919" lengthAdjust="spacingAndGlyphs" text-anchor="middle" opacity="0" stroke-opacity="0">19.05</svg:text>
</svg:g>
<svg:g class="stroked-text"><svg:desc>19.05</svg:desc>
<svg:path d="M28.9181 126.8648 L28.9181 130.7614 "/>
<svg:path d="M28.9181 128.8131 L22.0991 128.8131 "/>
<svg:path d="M22.0991 128.8131 L23.0733 129.4625 "/>
<svg:path d="M23.0733 129.4625 L23.7227 130.1120 "/>
<svg:path d="M23.7227 130.1120 L24.0474 130.7614 "/>
<svg:path d="M28.9181 123.6177 L28.9181 122.3189 "/>
<svg:path d="M28.9181 122.3189 L28.5934 121.6694 "/>
<svg:path d="M28.5934 121.6694 L28.2687 121.3447 "/>
<svg:path d="M28.2687 121.3447 L27.2945 120.6953 "/>
<svg:path d="M27.2945 120.6953 L25.9957 120.3706 "/>
<svg:path d="M25.9957 120.3706 L23.3980 120.3706 "/>
<svg:path d="M23.3980 120.3706 L22.7486 120.6953 "/>
<svg:path d="M22.7486 120.6953 L22.4239 121.0200 "/>
<svg:path d="M22.4239 121.0200 L22.0991 121.6694 "/>
<svg:path d="M22.0991 121.6694 L22.0991 122.9683 "/>
<svg:path d="M22.0991 122.9683 L22.4239 123.6177 "/>
<svg:path d="M22.4239 123.6177 L22.7486 123.9424 "/>
<svg:path d="M22.7486 123.9424 L23.3980 124.2671 "/>
<svg:path d="M23.3980 124.2671 L25.0215 124.2671 "/>
<svg:path d="M25.0215 124.2671 L25.6710 123.9424 "/>
<svg:path d="M25.6710 123.9424 L25.9957 123.6177 "/>
<svg:path d="M25.9957 123.6177 L26.3204 122.9683 "/>
<svg:path d="M26.3204 122.9683 L26.3204 121.6694 "/>
<svg:path d="M26.3204 121.6694 L25.9957 121.0200 "/>
<svg:path d="M25.9957 121.0200 L25.6710 120.6953 "/>
<svg:path d="M25.6710 120.6953 L25.0215 120.3706 "/>
<svg:path d="M28.2687 117.4482 L28.5934 117.1235 "/>
<svg:path d="M28.5934 117.1235 L28.9181 117.4482 "/>
<svg:path d="M28.9181 117.4482 L28.5934 117.7729 "/>
<svg:path d="M28.5934 117.7729 L28.2687 117.4482 "/>
<svg:path d="M28.2687 117.4482 L28.9181 117.4482 "/>
<svg:path d="M22.0991 112.9022 L22.0991 112.2528 "/>
<svg:path d="M22.0991 112.2528 L22.4239 111.6034 "/>
<svg:path d="M22.4239 111.6034 L22.7486 111.2787 "/>
<svg:path d="M22.7486 111.2787 L23.3980 110.9539 "/>
<svg:path d="M23.3980 110.9539 L24.6968 110.6292 "/>
<svg:path d="M24.6968 110.6292 L26.3204 110.6292 "/>
<svg:path d="M26.3204 110.6292 L27.6192 110.9539 "/>
<svg:path d="M27.6192 110.9539 L28.2687 111.2787 "/>
<svg:path d="M28.2687 111.2787 L28.5934 111.6034 "/>
<svg:path d="M28.5934 111.6034 L28.9181 112.2528 "/>
<svg:path d="M28.9181 112.2528 L28.9181 112.9022 "/>
<svg:path d="M28.9181 112.9022 L28.5934 113.5516 "/>
<svg:path d="M28.5934 113.5516 L28.2687 113.8764 "/>
<svg:path d="M28.2687 113.8764 L27.6192 114.2011 "/>
<svg:path d="M27.6192 114.2011 L26.3204 114.5258 "/>
<svg:path d="M26.3204 114.5258 L24.6968 114.5258 "/>
<svg:path d="M24.6968 114.5258 L23.3980 114.2011 "/>
<svg:path d="M23.3980 114.2011 L22.7486 113.8764 "/>
<svg:path d="M22.7486 113.8764 L22.4239 113.5516 "/>
<svg:path d="M22.4239 113.5516 L22.0991 112.9022 "/>
<svg:path d="M22.0991 104.4597 L22.0991 107.7068 "/>
<svg:path d="M22.0991 107.7068 L25.3463 108.0315 "/>
<svg:path d="M25.3463 108.0315 L25.0215 107.7068 "/>
<svg:path d="M25.0215 107.7068 L24.6968 107.0574 "/>
<svg:path d="M24.6968 107.0574 L24.6968 105.4338 "/>
<svg:path d="M24.6968 105.4338 L25.0215 104.7844 "/>
<svg:path d="M25.0215 104.7844 L25.3463 104.4597 "/>
<svg:path d="M25.3463 104.4597 L25.9957 104.1350 "/>
<svg:path d="M25.9957 104.1350 L27.6192 104.1350 "/>
<svg:path d="M27.6192 104.1350 L28.2687 104.4597 "/>
<svg:path d="M28.2687 104.4597 L28.5934 104.7844 "/>
<svg:path d="M28.5934 104.7844 L28.9181 105.4338 "/>
<svg:path d="M28.9181 105.4338 L28.9181 107.0574 "/>
<svg:path d="M28.9181 107.0574 L28.5934 107.7068 "/>
<svg:path d="M28.5934 107.7068 L28.2687 108.0315 "/>
</svg:g></svg:g>
<svg:g style="fill:none;  stroke:#000084; stroke-width:0.6819; stroke-opacity:1;  stroke-linecap:round; stroke-linejoin:round;">
<svg:path d="M82.0731 52.4976 L29.6597 52.4976 "/>
<svg:path d="M29.6597 182.3988 L82.0731 182.3988 "/>
<svg:path d="M33.6585 52.4976 L33.6585 182.3988 "/>
<svg:path d="M33.6585 52.4976 L37.6573 60.1792 "/>
<svg:path d="M33.6585 52.4976 L29.6597 60.1792 "/>
<svg:path d="M33.6585 182.3988 L29.6597 174.7172 "/>
<svg:path d="M33.6585 182.3988 L37.6573 174.7172 "/>
</svg:g>
<svg:g style="fill:none;  stroke:#000084; stroke-width:1.0228; stroke-opacity:1;  stroke-linecap:round; stroke-linejoin:round;">
<svg:text x="229.0216" y="207.6289" textLength="17.9403" font-size="9.0919" lengthAdjust="spacingAndGlyphs" text-anchor="middle" opacity="0" stroke-opacity="0">8.5</svg:text>
<svg:g class="stroked-text"><svg:desc>8.5</svg:desc>
<svg:path d="M223.5015 203.4243 L222.8521 203.0995 "/>
<svg:path d="M222.8521 203.0995 L222.5274 202.7748 "/>
<svg:path d="M222.5274 202.7748 L222.2027 202.1254 "/>
<svg:path d="M222.2027 202.1254 L222.2027 201.8007 "/>
<svg:path d="M222.2027 201.8007 L222.5274 201.1513 "/>
<svg:path d="M222.5274 201.1513 L222.8521 200.8266 "/>
<svg:path d="M222.8521 200.8266 L223.5015 200.5018 "/>
<svg:path d="M223.5015 200.5018 L224.8003 200.5018 "/>
<svg:path d="M224.8003 200.5018 L225.4498 200.8266 "/>
<svg:path d="M225.4498 200.8266 L225.7745 201.1513 "/>
<svg:path d="M225.7745 201.1513 L226.0992 201.8007 "/>
<svg:path d="M226.0992 201.8007 L226.0992 202.1254 "/>
<svg:path d="M226.0992 202.1254 L225.7745 202.7748 "/>
<svg:path d="M225.7745 202.7748 L225.4498 203.0995 "/>
<svg:path d="M225.4498 203.0995 L224.8003 203.4243 "/>
<svg:path d="M224.8003 203.4243 L223.5015 203.4243 "/>
<svg:path d="M223.5015 203.4243 L222.8521 203.7490 "/>
<svg:path d="M222.8521 203.7490 L222.5274 204.0737 "/>
<svg:path d="M222.5274 204.0737 L222.2027 204.7231 "/>
<svg:path d="M222.2027 204.7231 L222.2027 206.0220 "/>
<svg:path d="M222.2027 206.0220 L222.5274 206.6714 "/>
<svg:path d="M222.5274 206.6714 L222.8521 206.9961 "/>
<svg:path d="M222.8521 206.9961 L223.5015 207.3208 "/>
<svg:path d="M223.5015 207.3208 L224.8003 207.3208 "/>
<svg:path d="M224.8003 207.3208 L225.4498 206.9961 "/>
<svg:path d="M225.4498 206.9961 L225.7745 206.6714 "/>
<svg:path d="M225.7745 206.6714 L226.0992 206.0220 "/>
<svg:path d="M226.0992 206.0220 L226.0992 204.7231 "/>
<svg:path d="M226.0992 204.7231 L225.7745 204.0737 "/>
<svg:path d="M225.7745 204.0737 L225.4498 203.7490 "/>
<svg:path d="M225.4498 203.7490 L224.8003 203.4243 "/>
<svg:path d="M229.0216 206.6714 L229.3463 206.9961 "/>
<svg:path d="M229.3463 206.9961 L229.0216 207.3208 "/>
<svg:path d="M229.0216 207.3208 L228.6969 206.9961 "/>
<svg:path d="M228.6969 206.9961 L229.0216 206.6714 "/>
<svg:path d="M229.0216 206.6714 L229.0216 207.3208 "/>
<svg:path d="M235.5158 200.5018 L232.2687 200.5018 "/>
<svg:path d="M232.2687 200.5018 L231.9440 203.7490 "/>
<svg:path d="M231.9440 203.7490 L232.2687 203.4243 "/>
<svg:path d="M232.2687 203.4243 L232.9182 203.0995 "/>
<svg:path d="M232.9182 203.0995 L234.5417 203.0995 "/>
<svg:path d="M234.5417 203.0995 L235.1911 203.4243 "/>
<svg:path d="M235.1911 203.4243 L235.5158 203.7490 "/>
<svg:path d="M235.5158 203.7490 L235.8406 204.3984 "/>
<svg:path d="M235.8406 204.3984 L235.8406 206.0220 "/>
<svg:path d="M235.8406 206.0220 L235.5158 206.6714 "/>
<svg:path d="M235.5158 206.6714 L235.1911 206.9961 "/>
<svg:path d="M235.1911 206.9961 L234.5417 207.3208 "/>
<svg:path d="M234.5417 207.3208 L232.9182 207.3208 "/>
<svg:path d="M232.9182 207.3208 L232.2687 206.9961 "/>
<svg:path d="M232.2687 206.9961 L231.9440 206.6714 "/>
</svg:g></svg:g>
<svg:g style="fill:none;  stroke:#000084; stroke-width:0.6819; stroke-opacity:1;  stroke-linecap:round; stroke-linejoin:round;">
<svg:path d="M200.7229 158.5324 L200.7229 199.3535 "/>
<svg:path d="M258.6841 199.3535 L258.6841 158.5324 "/>
<svg:path d="M200.7229 195.3548 L258.6841 195.3548 "/>
<svg:path d="M200.7229 195.3548 L208.4045 191.3560 "/>
<svg:path d="M200.7229 195.3548 L208.4045 199.3535 "/>
<svg:path d="M258.6841 195.3548 L251.0025 199.3535 "/>
<svg:path d="M258.6841 195.3548 L251.0025 191.3560 "/>
</svg:g>
<svg:g style="fill:none;  stroke:#000084; stroke-width:1.0228; stroke-opacity:1;  stroke-linecap:round; stroke-linejoin:round;">
<svg:text x="249.4785" y="34.0864" textLength="17.9403" font-size="9.0919" lengthAdjust="spacingAndGlyphs" text-anchor="middle" opacity="0" stroke-opacity="0">1.5</svg:text>
<svg:g class="stroked-text"><svg:desc>1.5</svg:desc>
<svg:path d="M246.5561 33.7784 L242.6595 33.7784 "/>
<svg:path d="M244.6078 33.7784 L244.6078 26.9594 "/>
<svg:path d="M244.6078 26.9594 L243.9584 27.9335 "/>
<svg:path d="M243.9584 27.9335 L243.3089 28.5830 "/>
<svg:path d="M243.3089 28.5830 L242.6595 28.9077 "/>
<svg:path d="M249.4785 33.1289 L249.8032 33.4537 "/>
<svg:path d="M249.8032 33.4537 L249.4785 33.7784 "/>
<svg:path d="M249.4785 33.7784 L249.1538 33.4537 "/>
<svg:path d="M249.1538 33.4537 L249.4785 33.1289 "/>
<svg:path d="M249.4785 33.1289 L249.4785 33.7784 "/>
<svg:path d="M255.9727 26.9594 L252.7256 26.9594 "/>
<svg:path d="M252.7256 26.9594 L252.4009 30.2065 "/>
<svg:path d="M252.4009 30.2065 L252.7256 29.8818 "/>
<svg:path d="M252.7256 29.8818 L253.3750 29.5571 "/>
<svg:path d="M253.3750 29.5571 L254.9986 29.5571 "/>
<svg:path d="M254.9986 29.5571 L255.6480 29.8818 "/>
<svg:path d="M255.6480 29.8818 L255.9727 30.2065 "/>
<svg:path d="M255.9727 30.2065 L256.2974 30.8559 "/>
<svg:path d="M256.2974 30.8559 L256.2974 32.4795 "/>
<svg:path d="M256.2974 32.4795 L255.9727 33.1289 "/>
<svg:path d="M255.9727 33.1289 L255.6480 33.4537 "/>
<svg:path d="M255.6480 33.4537 L254.9986 33.7784 "/>
<svg:path d="M254.9986 33.7784 L253.3750 33.7784 "/>
<svg:path d="M253.3750 33.7784 L252.7256 33.4537 "/>
<svg:path d="M252.7256 33.4537 L252.4009 33.1289 "/>
</svg:g></svg:g>
<svg:g style="fill:none;  stroke:#000084; stroke-width:0.6819; stroke-opacity:1;  stroke-linecap:round; stroke-linejoin:round;">
<svg:path d="M248.4556 114.0387 L248.4556 36.3952 "/>
<svg:path d="M258.6841 36.3952 L258.6841 49.0882 "/>
<svg:path d="M248.4556 40.3940 L258.6841 40.3940 "/>
<svg:path d="M248.4556 40.3940 L231.1355 40.3940 "/>
<svg:path d="M248.4556 40.3940 L240.7741 44.3928 "/>
<svg:path d="M248.4556 40.3940 L240.7741 36.3952 "/>
<svg:path d="M258.6841 40.3940 L276.0042 40.3940 "/>
<svg:path d="M258.6841 40.3940 L266.3657 36.3952 "/>
<svg:path d="M258.6841 40.3940 L266.3657 44.3928 "/>
</svg:g> 
</svg:g></svg:g><svg:g><svg:g><svg:title>SVG Image created as can-module-F_Courtyard2.svg date 2026/02/19 14:25:42 </svg:title>
  <svg:desc>Image generated by PCBNEW </svg:desc>
<svg:g style="fill:#C2C2C2; fill-opacity:1.0000;stroke:#C2C2C2; stroke-opacity:1.0000; stroke-linecap:round; stroke-linejoin:round;" transform="translate(0 0) scale(1 1)">
</svg:g>
<svg:g style="fill:none;  stroke:#C2C2C2; stroke-width:0.3409; stroke-opacity:1;  stroke-linecap:round; stroke-linejoin:round;">
<svg:path d="M87.3237 157.8505 L110.2354 157.8505 "/>
<svg:path d="M87.3237 170.8065 L87.3237 157.8505 "/>
<svg:path d="M110.2354 157.8505 L110.2354 170.8065 "/>
<svg:path d="M110.2354 170.8065 L87.3237 170.8065 "/>
<svg:path d="M87.3237 64.4308 L110.2354 64.4308 "/>
<svg:path d="M87.3237 77.3868 L87.3237 64.4308 "/>
<svg:path d="M110.2354 64.4308 L110.2354 77.3868 "/>
<svg:path d="M110.2354 77.3868 L87.3237 77.3868 "/>
<svg:path d="M114.7359 90.6156 L121.0093 90.6156 "/>
<svg:path d="M114.7359 103.0261 L114.7359 90.6156 "/>
<svg:path d="M121.0093 90.6156 L121.0093 103.0261 "/>
<svg:path d="M121.0093 103.0261 L114.7359 103.0261 "/>
<svg:path d="M229.0216 135.5184 L241.9776 135.5184 "/>
<svg:path d="M229.0216 157.3391 L229.0216 135.5184 "/>
<svg:path d="M229.0216 157.3391 L241.9776 157.3391 "/>
<svg:path d="M241.9776 157.3391 L241.9776 135.5184 "/>
<svg:circle cx="162.1958" cy="158.8734" r="4.7733"/> 
</svg:g>
<svg:g style="fill:none;  stroke:#C2C2C2; stroke-width:1.0392; stroke-opacity:1;  stroke-linecap:round; stroke-linejoin:round;">
<svg:path d="M197.0748 107.9221 L199.1532 107.9221 "/>
<svg:path d="M197.0748 126.9743 L197.0748 107.9221 "/>
<svg:path d="M197.0748 126.9743 L199.1532 126.9743 "/>
<svg:path d="M199.1532 105.4973 L223.0550 105.4973 "/>
<svg:path d="M199.1532 107.9221 L199.1532 105.4973 "/>
<svg:path d="M199.1532 129.3991 L199.1532 126.9743 "/>
<svg:path d="M223.0550 105.4973 L223.0550 107.9221 "/>
<svg:path d="M223.0550 126.9743 L223.0550 129.3991 "/>
<svg:path d="M223.0550 129.3991 L199.1532 129.3991 "/>
<svg:path d="M225.1334 107.9221 L223.0550 107.9221 "/>
<svg:path d="M225.1334 107.9221 L225.1334 126.9743 "/>
<svg:path d="M225.1334 126.9743 L223.0550 126.9743 "/>
<svg:path style="fill:none;  stroke:#C2C2C2; stroke-width:0.3409; stroke-opacity:1;  stroke-linecap:round; stroke-linejoin:round;fill:none" d="M 238.4318,60.7486 226.0213,60.7486 226.0213,54.4751 238.4318,54.4751 Z"/> 
</svg:g>
<svg:g style="fill:none;  stroke:#C2C2C2; stroke-width:0.3409; stroke-opacity:1;  stroke-linecap:round; stroke-linejoin:round;">
<svg:path d="M164.4547 94.8993 L173.2303 86.1237 "/>
<svg:path d="M168.8907 99.3352 L164.4547 94.8993 "/>
<svg:path d="M173.2303 86.1237 L177.6662 90.5597 "/>
<svg:path d="M177.6662 90.5597 L168.8907 99.3352 "/>
<svg:path d="M152.0359 78.5820 L161.0044 69.6136 "/>
<svg:path d="M156.5684 83.1144 L152.0359 78.5820 "/>
<svg:path d="M161.0044 69.6136 L165.5368 74.1460 "/>
<svg:path d="M165.5368 74.1460 L156.5684 83.1144 "/>
<svg:circle cx="172.4243" cy="158.8734" r="4.7733"/> 
<svg:circle cx="128.7829" cy="87.2743" r="4.7733"/> 
<svg:path d="M159.6814 90.1260 L168.4570 81.3504 "/>
<svg:path d="M164.1174 94.5620 L159.6814 90.1260 "/>
<svg:path d="M168.4570 81.3504 L172.8930 85.7864 "/>
<svg:path d="M172.8930 85.7864 L164.1174 94.5620 "/>
<svg:path style="fill:none;  stroke:#C2C2C2; stroke-width:0.3409; stroke-opacity:1;  stroke-linecap:round; stroke-linejoin:round;fill:none" d="M 171.1287,61.0213 188.5170,61.0213 188.5170,53.5205 171.1287,53.5205 Z"/> 
<svg:path style="fill:none;  stroke:#C2C2C2; stroke-width:0.3409; stroke-opacity:1;  stroke-linecap:round; stroke-linejoin:round;fill:none" d="M 255.9565,135.2116 240.9548,135.2116 240.9548,99.7530 255.9565,99.7530 Z"/> 
<svg:path d="M122.3735 150.8629 L131.3419 141.8945 "/>
<svg:path d="M126.9059 155.3953 L122.3735 150.8629 "/>
<svg:path d="M131.3419 141.8945 L135.8743 146.4269 "/>
<svg:path d="M135.8743 146.4269 L126.9059 155.3953 "/>
</svg:g>
<svg:g style="fill:none;  stroke:#C2C2C2; stroke-width:0.6819; stroke-opacity:1;  stroke-linecap:round; stroke-linejoin:round;">
<svg:path d="M220.1570 62.7261 L240.6138 62.7261 "/>
<svg:path d="M220.1570 83.1829 L220.1570 62.7261 "/>
<svg:path d="M240.6138 62.7261 L240.6138 83.1829 "/>
<svg:path d="M240.6138 83.1829 L220.1570 83.1829 "/>
<svg:path style="fill:none;  stroke:#C2C2C2; stroke-width:0.3409; stroke-opacity:1;  stroke-linecap:round; stroke-linejoin:round;fill:none" d="M 127.1464,59.9303 120.8730,59.9303 120.8730,72.3408 127.1464,72.3408 Z"/> 
</svg:g>
<svg:g style="fill:none;  stroke:#C2C2C2; stroke-width:0.3409; stroke-opacity:1;  stroke-linecap:round; stroke-linejoin:round;">
<svg:path d="M156.9539 83.3070 L165.7294 74.5315 "/>
<svg:path d="M161.3898 87.7430 L156.9539 83.3070 "/>
<svg:path d="M165.7294 74.5315 L170.1654 78.9675 "/>
<svg:path d="M170.1654 78.9675 L161.3898 87.7430 "/>
<svg:path d="M174.0012 104.1771 L182.7768 95.4015 "/>
<svg:path d="M178.4372 108.6130 L174.0012 104.1771 "/>
<svg:path d="M182.7768 95.4015 L187.2128 99.8375 "/>
<svg:path d="M187.2128 99.8375 L178.4372 108.6130 "/>
<svg:path d="M242.6595 135.5184 L255.6155 135.5184 "/>
<svg:path d="M242.6595 157.3391 L242.6595 135.5184 "/>
<svg:path d="M242.6595 157.3391 L255.6155 157.3391 "/>
<svg:path d="M255.6155 157.3391 L255.6155 135.5184 "/>
<svg:circle cx="119.5774" cy="84.5467" r="4.7733"/> 
<svg:path style="fill:none;  stroke:#C2C2C2; stroke-width:0.3409; stroke-opacity:1;  stroke-linecap:round; stroke-linejoin:round;fill:none" d="M 219.9524,54.6797 213.5426,54.6797 213.5426,67.3630 219.9524,67.3630 Z"/> 
<svg:path d="M178.6299 108.8539 L187.5983 99.8855 "/>
<svg:path d="M183.1623 113.3863 L178.6299 108.8539 "/>
<svg:path d="M187.5983 99.8855 L192.1307 104.4179 "/>
<svg:path d="M192.1307 104.4179 L183.1623 113.3863 "/>
<svg:path style="fill:none;  stroke:#C2C2C2; stroke-width:0.3409; stroke-opacity:1;  stroke-linecap:round; stroke-linejoin:round;fill:none" d="M 241.4321,85.0922 256.8430,85.0922 256.8430,53.9978 241.4321,53.9978 Z"/> 
<svg:path d="M169.2280 99.6725 L178.0035 90.8970 "/>
<svg:path d="M173.6640 104.1085 L169.2280 99.6725 "/>
<svg:path d="M178.0035 90.8970 L182.4395 95.3330 "/>
<svg:path d="M182.4395 95.3330 L173.6640 104.1085 "/>
<svg:circle cx="232.0901" cy="104.4581" r="4.7733"/> 
<svg:circle cx="200.7229" cy="155.1229" r="16.7064"/> 
<svg:circle cx="126.3963" cy="77.7278" r="4.7733"/> 
<svg:circle cx="136.6247" cy="167.3970" r="4.7733"/> 
<svg:circle cx="131.5105" cy="158.8734" r="4.7733"/> 
<svg:path d="M107.0739 117.4482 L146.8532 77.6689 "/>
<svg:path d="M146.8532 77.6689 L186.6325 117.4482 "/>
<svg:path d="M146.8532 157.2275 L107.0739 117.4482 "/>
<svg:path d="M186.6325 117.4482 L146.8532 157.2275 "/>
<svg:circle cx="146.8532" cy="167.3970" r="4.7733"/> 
<svg:path d="M182.8659 121.9269 L187.3019 117.4909 "/>
<svg:path d="M187.3019 117.4909 L196.0774 126.2665 "/>
<svg:path d="M191.6414 130.7024 L182.8659 121.9269 "/>
<svg:path d="M196.0774 126.2665 L191.6414 130.7024 "/>
<svg:path d="M204.8989 98.7983 L217.3094 98.7983 "/>
<svg:path d="M204.8989 105.0718 L204.8989 98.7983 "/>
<svg:path d="M217.3094 98.7983 L217.3094 105.0718 "/>
<svg:path d="M217.3094 105.0718 L204.8989 105.0718 "/>
<svg:path d="M85.1416 79.3643 L85.1416 155.5321 "/>
<svg:path d="M85.1416 155.5321 L106.2804 155.5321 "/>
<svg:path d="M106.2804 79.3643 L85.1416 79.3643 "/>
<svg:path d="M106.2804 155.5321 L106.2804 79.3643 "/>
<svg:circle cx="141.7390" cy="158.8734" r="4.7733"/> 
<svg:circle cx="135.6019" cy="80.4554" r="4.7733"/> 
<svg:circle cx="157.0816" cy="167.3970" r="4.7733"/> 
<svg:path d="M234.8177 85.2286 L234.8177 98.1846 "/>
<svg:path d="M234.8177 85.2286 L256.6384 85.2286 "/>
<svg:path d="M234.8177 98.1846 L256.6384 98.1846 "/>
<svg:path d="M256.6384 85.2286 L256.6384 98.1846 "/>
<svg:path d="M107.9169 90.6156 L114.1904 90.6156 "/>
<svg:path d="M107.9169 103.0261 L107.9169 90.6156 "/>
<svg:path d="M114.1904 90.6156 L114.1904 103.0261 "/>
<svg:path d="M114.1904 103.0261 L107.9169 103.0261 "/>
<svg:circle cx="167.3101" cy="167.3970" r="4.7733"/> 
<svg:path d="M110.9173 64.5672 L117.3271 64.5672 "/>
<svg:path d="M110.9173 77.2504 L110.9173 64.5672 "/>
<svg:path d="M117.3271 64.5672 L117.3271 77.2504 "/>
<svg:path d="M117.3271 77.2504 L110.9173 77.2504 "/>
<svg:path d="M177.7517 127.0411 L182.1877 122.6051 "/>
<svg:path d="M182.1877 122.6051 L190.9632 131.3807 "/>
<svg:path d="M186.5272 135.8167 L177.7517 127.0411 "/>
<svg:path d="M190.9632 131.3807 L186.5272 135.8167 "/>
<svg:path d="M127.9306 52.1567 L127.9306 73.2954 "/>
<svg:path d="M127.9306 73.2954 L152.1379 73.2954 "/>
<svg:path d="M152.1379 52.1567 L127.9306 52.1567 "/>
<svg:path d="M152.1379 73.2954 L152.1379 52.1567 "/>
<svg:circle cx="200.7229" cy="79.7735" r="16.7064"/> 
<svg:path d="M112.9716 141.6091 L121.7471 132.8336 "/>
<svg:path d="M117.4076 146.0451 L112.9716 141.6091 "/>
<svg:path d="M121.7471 132.8336 L126.1831 137.2695 "/>
<svg:path d="M126.1831 137.2695 L117.4076 146.0451 "/>
<svg:path style="fill:none;  stroke:#C2C2C2; stroke-width:0.3409; stroke-opacity:1;  stroke-linecap:round; stroke-linejoin:round;fill:none" d="M 231.4764,89.7291 219.0659,89.7291 219.0659,83.4557 231.4764,83.4557 Z"/> 
<svg:circle cx="151.9674" cy="158.8734" r="4.7733"/> 
</svg:g> 
</svg:g></svg:g></svg>
